<svg width="512" height="512" viewBox="0 0 512 512" fill="none" xmlns="http://www.w3.org/2000/svg">
<path d="M305.772 305.065L256.118 397.483L207.188 304.616L305.772 305.065ZM307.294 304.118L205.666 303.653L256.111 399.4L307.294 304.118Z" fill="#E6AF2E"/>
<path d="M311.122 291.808L263.989 409.176L193.886 306.195L311.122 291.808ZM312.815 290.453L191.957 305.281L264.225 411.454L312.815 290.485V290.453Z" fill="#E6AF2E"/>
<path d="M315.786 275.247L274.845 421.903L178.278 310.093L315.786 275.247ZM317.618 273.379L175.884 309.299L275.414 424.558L317.618 273.379Z" fill="#E6AF2E"/>
<path d="M319.193 254.845L289.381 435.368L160.224 317.086L319.193 254.845ZM321.136 252.343L157.254 316.501L290.43 438.448L321.166 252.343H321.136Z" fill="#E6AF2E"/>
<path d="M320.619 230.088L308.388 449.17L139.673 328.177L320.619 230.088ZM322.614 226.816L136.059 327.864L309.999 452.65L322.614 226.784V226.816Z" fill="#E6AF2E"/>
<path d="M319.141 200.439L332.761 462.683L116.645 344.377L319.141 200.439ZM321.077 196.245L112.329 344.641L335.126 466.637L321.077 196.245Z" fill="#E6AF2E"/>
<path d="M313.561 165.418L363.474 475.114L91.371 367.169L313.561 165.418ZM315.342 160.149L86.2497 368.139L366.792 479.412L315.342 160.149Z" fill="#E6AF2E"/>
<path d="M302.439 124.638L401.57 485.202L64.2936 398.085L302.469 124.614L302.439 124.638ZM303.895 118.078L58.3298 400.009L406.07 489.83L303.865 118.118L303.895 118.078Z" fill="#E6AF2E"/>
<path d="M283.964 77.8504L448.15 491.425L36.0118 438.936L283.964 77.8504ZM284.829 69.8307L29.2056 442.12L454.091 496.229L284.829 69.8628V69.8307Z" fill="#E6AF2E"/>
<path d="M256 25.0333L504.307 491.778H7.69308L256 25.0333ZM256 15.4097L0 496.59H512L256 15.4097Z" fill="#E6AF2E"/>
</svg>
