<svg width="66" height="60" viewBox="0 0 66 60" fill="none" xmlns="http://www.w3.org/2000/svg">
<path d="M39.4159 36.118L33.0152 47.642L26.7079 36.062L39.4159 36.118ZM39.6122 36L26.5116 35.942L33.0143 47.881L39.6122 36Z" fill="white"/>
<path d="M40.1056 34.465L34.0298 49.1L24.9931 36.259L40.1056 34.465ZM40.3238 34.296L24.7445 36.145L34.0603 49.384L40.3238 34.3V34.296Z" fill="white"/>
<path d="M40.7068 32.4L35.4292 50.687L22.9812 36.745L40.7068 32.4ZM40.943 32.167L22.6726 36.646L35.5025 51.018L40.943 32.167Z" fill="white"/>
<path d="M41.1459 29.856L37.303 52.366L20.6539 37.617L41.1459 29.856ZM41.3965 29.544L20.271 37.544L37.4383 52.75L41.4003 29.544H41.3965Z" fill="white"/>
<path d="M41.3298 26.769L39.7532 54.087L18.0047 39L41.3298 26.769ZM41.587 26.361L17.5389 38.961L39.9609 54.521L41.587 26.357V26.361Z" fill="white"/>
<path d="M41.1393 23.072L42.895 55.772L15.0363 41.02L41.1393 23.072ZM41.3888 22.549L14.4799 41.053L43.1998 56.265L41.3888 22.549Z" fill="white"/>
<path d="M40.42 18.705L46.8541 57.322L11.7783 43.862L40.42 18.705ZM40.6496 18.048L11.1181 43.983L47.2818 57.858L40.6496 18.048Z" fill="white"/>
<path d="M38.9863 13.62L51.7649 58.58L8.28785 47.717L38.9901 13.617L38.9863 13.62ZM39.174 12.802L7.51908 47.957L52.345 59.157L39.1702 12.807L39.174 12.802Z" fill="white"/>
<path d="M36.6047 7.78594L57.7693 59.3559L4.64215 52.8109L36.6047 7.78594ZM36.7162 6.78594L3.76478 53.2079L58.5352 59.9549L36.7162 6.78994V6.78594Z" fill="white"/>
<path d="M33 1.2L65.0083 59.4H0.991686L33 1.2ZM33 0L0 60H66L33 0Z" fill="white"/>
</svg>
