<svg width="149" height="131" viewBox="0 0 149 131" fill="none" xmlns="http://www.w3.org/2000/svg">
<path d="M88.7575 78.4959L74.7502 103.837L60.1631 78.6482L88.7575 78.4959ZM92.2722 78.7692L73.1964 106.062L58.99 76.1809L92.2722 78.7692ZM96.2619 79.5579L70.4248 109.253L57.5089 71.897L96.2619 79.5579ZM100.909 81.0189L66.6631 112.738L56.4182 67.0308L100.909 81.0189ZM106.67 83.5664L61.528 116.483L55.8026 61.0731L106.67 83.5664ZM112.278 86.8009L55.8026 119.836V54.2288L112.278 86.8009ZM118.707 91.4655L48.8112 122.99L56.5839 46.3925L118.707 91.4655ZM125.623 97.7041L39.9784 125.897L58.5044 37.1631L125.623 97.7041ZM132.935 105.859L29.2674 128.206L61.8872 26.6181L132.935 105.859ZM140.505 116.356L16.3126 129.586L67.163 14.6597L140.505 116.356ZM148.082 129.586L1.24826 129.586L74.7236 1.49673L148.082 129.586Z" stroke="white" stroke-linecap="round" stroke-linejoin="round"/>
</svg>
